<?xml version="1.0" encoding="utf-8"?>
<svg version="1.1" id="project-logo" xmlns="http://www.w3.org/2000/svg" xmlns:xlink="http://www.w3.org/1999/xlink" x="0px"
   y="0px" viewBox="0 0 550 525" enable-background="new 0 0 550 525" xml:space="preserve">
  <defs>
    <style type="text/css">
      @import url('https://fonts.googleapis.com/css?family=Zilla+Slab:600');
      @import url('https://fonts.googleapis.com/css?family=Open+Sans:600');
   </style>
  </defs>
  <desc xmlns:MechanicalSoup="https://github.com/MechanicalSoup/MechanicalSoup">
    <MechanicalSoup:title>MechanicalSoup Logo</MechanicalSoup:title>
    <MechanicalSoup:descr>MechanicalSoup: A Python library for automating website interaction.</MechanicalSoup:descr>
  </desc>
  <metadata>
    <rdf:RDF
         xmlns:rdf = "http://www.w3.org/1999/02/22-rdf-syntax-ns#"
         xmlns:rdfs = "http://www.w3.org/2000/01/rdf-schema#"
         xmlns:dc = "http://purl.org/dc/elements/1.1/" >
      <rdf:Description about="https://github.com/MechanicalSoup/MechanicalSoup"
           dc:title="MechanicalSoup Logo"
           dc:description="MechanicalSoup: A Python library for automating website interaction."
           dc:publisher="Mike Kormendy"
           dc:date="2018-08-24"
           dc:format="image/svg+xml"
           dc:language="en" >
        <dc:creator>
          <rdf:Bag>
            <rdf:li>Mike Kormendy</rdf:li>
          </rdf:Bag>
        </dc:creator>
      </rdf:Description>
    </rdf:RDF>
  </metadata>
  <text transform="matrix(1 0 0 1 39.6937 469.4026)" fill="#565759" font-family="'ZillaSlab-SemiBold'" font-size="65px" style="font-family: 'ZillaSlab-SemiBold';">MechanicalSoup</text>
  <text transform="matrix(1 0 0 1 42.1231 495.8894)" fill="#97999C" font-family="'OpenSans-Semibold'" font-size="16.5px" style="font-family: 'OpenSans-Semibold';">A Python library for automating website interaction.</text>
  <path id="red-soup" fill="#D2613E" d="M367.732,253.222c0,62.613-50.934,113.546-113.546,113.546s-113.552-50.933-113.552-113.546
    c0-62.612,50.939-113.552,113.552-113.552S367.732,190.61,367.732,253.222z"/>
  <path id="cog-bowl-outline" fill="#6E6E6E" d="M267.067,107.731h-7.1h-11.57h-7.1l-1.653,6.904l-1.715,7.165
    c-2.364,0.289-4.719,0.64-7.056,1.053l-3.746-6.331l-3.615-6.11l-6.784,2.093l-11.056,3.41l-6.784,2.093l0.455,7.085l0.471,7.333
    c-2.17,0.976-4.316,2.012-6.433,3.104l-5.443-4.944l-5.255-4.773l-5.866,3.999l-9.56,6.518l-5.866,3.999l2.523,6.636l2.575,6.771
    c-1.271,1.228-3.228,3.126-5.122,4.994l-6.732-3.155l-6.429-3.012l-4.426,5.551l-7.214,9.046l-4.426,5.551l4.367,5.597l4.53,5.805
    c-1.248,2.029-2.442,4.09-3.576,6.176l-7.283-1.019l-7.031-0.984l-2.594,6.609l-4.227,10.77l-2.594,6.609l5.823,4.061l6.025,4.202
    c-0.588,2.303-1.116,4.627-1.581,6.965l-7.262,1.173l-7.009,1.133l-0.531,7.08l-0.865,11.537l-0.531,7.079l6.761,2.164l7.022,2.248
    c0.113,2.375,0.289,4.747,0.527,7.109l-6.603,3.267l-6.363,3.148l1.58,6.921l2.574,11.28l1.58,6.922l7.099,0.075l7.345,0.078
    c0.811,2.24,1.682,4.46,2.611,6.652l-5.332,5.053l-5.153,4.884l3.55,6.148l5.785,10.02l3.55,6.148l6.806-2.021l7.069-2.099
    c1.43,1.891,2.914,3.748,4.446,5.565l-3.622,6.431l-3.484,6.186l5.204,4.829l8.481,7.869l5.204,4.829l5.908-3.937l6.136-4.088
    c1.929,1.396,3.893,2.739,5.886,4.024l-1.562,7.195l-1.506,6.938l6.396,3.08l10.424,5.02l6.396,3.08l4.485-5.503l4.639-5.692
    c2.254,0.761,4.533,1.462,6.831,2.102l0.627,7.321l0.606,7.073l7.02,1.058l11.44,1.724l7.02,1.058l2.664-6.581l2.827-6.985
    c1.398,0.013,2.671,0.015,3.502,0.015s2.104-0.003,3.502-0.015l2.827,6.984l2.664,6.581l7.02-1.058l11.44-1.724l7.02-1.058
    l0.606-7.073l0.627-7.321c2.298-0.64,4.577-1.341,6.831-2.102l4.639,5.692l4.485,5.503l6.396-3.08l10.424-5.02l6.396-3.08
    l-1.506-6.938l-1.562-7.195c1.992-1.286,3.957-2.629,5.886-4.024l6.136,4.088l5.908,3.937l5.204-4.829l8.481-7.869l5.204-4.829
    l-3.484-6.186l-3.622-6.431c1.532-1.817,3.016-3.674,4.446-5.565l7.069,2.099l6.806,2.021l3.55-6.148l5.785-10.02l3.55-6.148
    l-5.153-4.884l-5.332-5.053c0.93-2.192,1.801-4.412,2.611-6.652l7.345-0.078l7.099-0.075l1.58-6.921l2.574-11.28l1.58-6.921
    l-6.363-3.148l-6.603-3.267c0.238-2.361,0.414-4.734,0.527-7.109l7.022-2.248l6.761-2.164l-0.53-7.08l-0.865-11.537l-0.531-7.08
    l-7.009-1.133l-7.261-1.173c-0.465-2.339-0.992-4.663-1.581-6.965l6.026-4.202l5.823-4.061l-2.594-6.609l-4.227-10.77l-2.594-6.609
    l-7.031,0.984l-7.283,1.019c-1.134-2.086-2.328-4.148-3.576-6.176l4.53-5.805l4.367-5.597l-4.427-5.551l-7.214-9.046l-4.426-5.551
    l-6.429,3.012l-6.849,3.209c-1.691-1.581-3.519-3.251-5.133-4.711l2.703-7.108l2.523-6.636l-5.866-3.999l-9.56-6.518l-5.866-3.999
    l-5.255,4.773l-5.443,4.944c-2.117-1.092-4.263-2.128-6.433-3.104l0.471-7.333l0.455-7.085l-6.784-2.093l-11.056-3.41l-6.784-2.093
    l-3.615,6.11l-3.746,6.331c-2.338-0.413-4.692-0.765-7.056-1.053l-1.715-7.165L267.067,107.731L267.067,107.731z M254.185,347.373
    c-51.918,0-94.156-42.236-94.156-94.151c0-51.918,42.238-94.156,94.156-94.156c51.915,0,94.151,42.238,94.151,94.156
    C348.336,305.137,306.1,347.373,254.185,347.373L254.185,347.373z"/>
  <g id="cog-bowl-fill">
    <path fill="#B3B3B3" d="M377.927,253.552c0-0.085-0.003-0.168-0.003-0.253l13.13-4.203l-0.865-11.537l-13.596-2.197
      c-0.936-6.351-2.348-12.547-4.211-18.545l11.278-7.866l-4.227-10.77l-13.623,1.906c-2.757-5.746-5.949-11.242-9.525-16.455
      l8.476-10.863l-7.214-9.046l-12.488,5.852c-2.528-2.735-11.312-10.625-13.922-12.925l4.9-12.885l-9.56-6.518l-10.191,9.257
      c-5.459-3.174-11.181-5.943-17.128-8.264l0.882-13.725l-11.056-3.41l-7.004,11.84c-6.107-1.402-12.387-2.348-18.802-2.809
      l-3.21-13.405h-11.57l-3.21,13.405c-6.415,0.461-12.695,1.407-18.802,2.809l-7.004-11.84l-11.056,3.41l0.882,13.725
      c-5.947,2.321-11.67,5.09-17.128,8.264l-10.191-9.257l-9.559,6.518l4.9,12.885c-1.015,0.807-3.177,2.298-3.177,2.298
      s-8.217,7.893-10.745,10.628l-12.488-5.852l-7.214,9.046l8.476,10.863c-3.577,5.212-6.768,10.709-9.525,16.455l-13.623-1.906
      l-4.227,10.77l11.277,7.866c-1.862,5.999-3.275,12.194-4.211,18.545l-13.596,2.197l-0.865,11.537l13.13,4.203
      c0,0.085-0.003,0.168-0.003,0.253c0,6.357,0.481,12.602,1.406,18.701l-12.34,6.105l2.574,11.28l13.754,0.146
      c1.87,6.116,4.199,12.032,6.951,17.705l-9.985,9.464l5.785,10.02l13.205-3.92c3.573,5.253,7.542,10.213,11.859,14.845
      l-6.769,12.017l8.481,7.869l11.474-7.645c4.936,3.958,10.177,7.551,15.691,10.726l-2.92,13.449l10.424,5.02l8.686-10.658
      c5.854,2.314,11.928,4.189,18.179,5.596l1.174,13.712l11.44,1.724l5.17-12.771c3.136,0.238,15.869,0.238,19.005,0l5.169,12.771
      l11.44-1.724l1.174-13.712c6.251-1.407,12.326-3.282,18.179-5.596l8.687,10.658l10.424-5.02l-2.92-13.449
      c5.514-3.175,10.755-6.768,15.691-10.726l11.474,7.645l8.481-7.869l-6.769-12.017c4.317-4.632,8.287-9.592,11.859-14.845
      l13.205,3.92l5.785-10.02l-9.985-9.464c2.752-5.673,5.081-11.589,6.951-17.705l13.754-0.146l2.575-11.28l-12.34-6.105
      C377.445,266.154,377.927,259.909,377.927,253.552z M357.336,253.222c0,56.881-46.271,103.151-103.151,103.151
      s-103.156-46.27-103.156-103.151c0-56.88,46.276-103.156,103.156-103.156S357.336,196.341,357.336,253.222z"/>
  </g>
  <g id="ramen-noodles">
    <g id="noodles">
      <path fill="#C7BF89" d="M305.576,304.459c14.372-14.383,22.292-33.497,22.305-53.833c0.025-38.12-30.97-69.154-69.091-69.179
        c-34.6-0.021-62.766,28.11-62.788,62.709c-0.02,31.429,25.533,57.015,56.962,57.036c28.576,0.018,51.841-23.217,51.861-51.794
        c0.016-26.01-21.131-47.184-47.141-47.2c-11.48-0.007-22.276,4.457-30.399,12.569c-0.01,0.01-0.021,0.021-0.032,0.032
        c-8.103,8.109-12.569,18.886-12.575,30.351c-0.014,21.619,17.563,39.22,39.182,39.234l0.008-10.531
        c-15.813-0.01-28.67-12.884-28.66-28.696c0.006-8.656,3.377-16.793,9.495-22.915c0.008-0.008,0.016-0.016,0.024-0.024
        c6.133-6.125,14.283-9.495,22.951-9.489c20.203,0.013,36.629,16.46,36.617,36.663c-0.007,11.016-4.298,21.371-12.083,29.162
        c-0.011,0.011-0.02,0.02-0.031,0.03c-7.805,7.795-18.178,12.084-29.208,12.077c-25.624-0.017-46.457-20.876-46.44-46.498
        c0.019-28.793,23.459-52.203,52.251-52.185c32.314,0.021,58.587,26.327,58.566,58.642c-0.01,17.526-6.837,34.002-19.223,46.397
        c-0.017,0.017-0.032,0.032-0.049,0.049c-12.417,12.402-28.92,19.225-46.47,19.214c-40.575-0.026-73.565-33.058-73.54-73.634
        c0,0.006,0.215-66.075,0.277-94.997c0.003-1.392,0.01-2.803,0.018-4.229c0.129-24.141,0.29-54.185-22.096-71.628
        c-11.693-9.112-27.128-10.52-39.323-3.588c-7.626,4.335-13.291,12.218-15.156,21.087c-1.685,8.016-0.086,15.83,4.505,22.002
        c5.727,7.701,15.715,11.663,25.446,10.096c8.632-1.389,15.127-6.85,17.823-14.977c3.427-10.335,0.016-21.381-8.294-26.862
        l-5.797,8.791c4.843,3.194,5.727,9.841,4.096,14.757c-1.94,5.852-6.786,7.458-9.502,7.895c-5.807,0.935-11.964-1.47-15.322-5.984
        c-2.764-3.716-3.705-8.529-2.649-13.551c1.234-5.874,5.087-11.275,10.054-14.099c8.476-4.818,19.329-3.742,27.647,2.74
        c18.3,14.26,18.161,40.295,18.038,63.265c-0.008,1.437-0.015,2.86-0.019,4.263c-0.062,28.92-0.277,94.998-0.277,94.998
        c-0.029,46.397,37.682,84.155,84.064,84.184c20.362,0.013,39.51-7.904,53.918-22.293
        C305.537,304.497,305.557,304.478,305.576,304.459z"/>
    </g>
    <g id="noodle">
      <path fill="#C7BF89" d="M196.193,245.25c0,0.006,0.425-138.106,0.425-138.106c-0.129-24.141-0.29-54.185,22.096-71.628
        c11.693-9.112,27.128-10.52,39.323-3.588c7.626,4.335,13.291,12.218,15.156,21.087c1.685,8.016,0.086,15.83-4.505,22.002
        c-5.727,7.701-15.715,11.663-25.446,10.096c-8.632-1.389-15.127-6.85-17.823-14.977c-3.427-10.335-0.016-21.381,8.294-26.862
        l5.797,8.791c-4.843,3.194-5.727,9.841-4.096,14.757c1.94,5.852,6.786,7.458,9.502,7.895c5.807,0.935,11.964-1.47,15.322-5.984
        c2.764-3.716,3.705-8.529,2.649-13.551c-1.234-5.874-5.087-11.275-10.054-14.099c-8.476-4.818-19.329-3.742-27.647,2.74
        c-18.3,14.26-18.161,40.295-18.038,63.265l-0.425,138.141L196.193,245.25z"/>
    </g>
  </g>
  <g id="spices">
      <circle id="red-beet" fill="#9E492C" stroke="#873D1D" stroke-width="7" stroke-miterlimit="10" cx="235.739" cy="310.07" r="20.75"/>
    <path id="chili-right" fill="none" stroke="#914126" stroke-width="11" stroke-miterlimit="10" d="M275.193,276.453
      c0,0,12.699-13.816,26.514,0c13.816,13.816,26.173,0,26.173,0"/>
    <path id="chili-left" fill="none" stroke="#914126" stroke-width="11" stroke-miterlimit="10" d="M188.164,243.311
      c0,0,12.699-13.816,26.514,0c13.816,13.816,26.173,0,26.173,0"/>
    <g id="basil">
      <path id="leaf-fill" fill="#92B357" stroke="#588A59" stroke-width="6.18" stroke-miterlimit="10" d="M269.728,244.765
        c5.986,3.508,23.13,1.312,30.812-12.7c8.17-14.9,6.558-33.521,4.764-49.803c-15.082,6.391-32.116,14.085-41.124,28.494
        C255.71,224.306,264.111,241.473,269.728,244.765z"/>
        <line id="leaf-crease" fill="none" stroke="#588A59" stroke-width="6.18" stroke-miterlimit="10" x1="269.728" y1="244.765" x2="286.394" y2="216.329"/>
    </g>
  </g>
  <g id="wrench-spoon">
    <path id="fill" fill="#CCCCCC" d="M504.639,320.881V188.265c10.144-4.89,16.678-25.85,10.316-35.76
      c-3.542-5.519-8.877-9.188-14.754-10.741c-2.108-0.557-3.799,1.782-2.621,3.617l6.559,10.217c1.244,1.937,1.444,4.366,0.536,6.481
      l-3.568,8.31c-1.117,2.602-3.705,4.264-6.537,4.196l-9.041-0.216c-2.302-0.055-4.426-1.249-5.669-3.186l-6.558-10.217
      c-1.18-1.838-4.01-1.269-4.381,0.884c-1.061,6.15,0.145,12.709,3.917,18.327c4.399,6.549,3.205,4.796,9.889,8.05v132.654
      c-7.017,3.869-11.772,11.335-11.772,19.914c0,12.552,10.176,22.728,22.728,22.728c12.552,0,22.728-10.176,22.728-22.728
      C516.411,332.216,511.656,324.749,504.639,320.881z M501.739,353.594l-8.095,2.404l-8.11-2.355l-5.549-6.365l-1.227-8.355
      l3.485-7.692l7.09-4.587l8.445-0.025l7.118,4.544l3.531,7.671l-1.177,8.362L501.739,353.594z"/>
    <g id="label">
      <rect x="489.863" y="199.911" fill="#969696" width="7.444" height="109.038"/>
    </g>
  </g>
  <g id="screwdriver-knife">
    <rect id="shaft" x="429.548" y="135.014" fill="#B3B3B3" width="10.101" height="108.298"/>
    <polygon id="tip" fill="#CCCCCC" points="441.388,129.082 441.388,129.082 441.388,129.082 439.649,113.441 429.548,113.441 
      427.81,129.082 429.548,135.014 429.548,135.014 439.649,135.014  "/>
    <path id="handle" fill="#5E636F" d="M450.022,266.121v7.784c0,4.261,1.619,8.362,4.53,11.474l0,0
      c0.978,1.046,1.523,2.425,1.523,3.857v79.938c0,5.001-4.054,9.056-9.056,9.056h-24.841c-5.001,0-9.056-4.054-9.056-9.056v-79.938
      c0-1.432,0.544-2.811,1.523-3.857l0,0c2.911-3.112,4.53-7.213,4.53-11.474v-7.784h6.84h17.166H450.022z M439.649,260.777h3.533
      v-17.465h-3.533h-10.101h-3.533v17.465h3.533H439.649z"/>
    <path id="grip" fill="#444952" d="M426.62,295.812v67.961h-7.444v-67.961H426.62z M430.877,295.812v67.961h7.444v-67.961H430.877z
       M442.578,295.812v67.961h7.444v-67.961H442.578z"/>
    <polygon id="hilt" fill="#444952" points="453.663,266.121 415.462,266.121 415.524,260.777 453.726,260.777   "/>
  </g>
  <g id="pliers-fork">
    <path id="handle-joint-right" fill="#B3B3B3" d="M54.923,221.923l-4.778,4.636v8.682l12.198,16.553l3.157-21.246
      C59.599,229.835,56.692,227.428,54.923,221.923z"/>
    <path id="handle-joint-left" fill="#CCCCCC" d="M83.142,235.24v-8.682l-4.484-4.342c-1.769,5.505-4.882,7.618-10.783,8.33
      l3.069,21.246L83.142,235.24z"/>
    <g id="handle-left">
      <path fill="#73401A" d="M38.835,270.195c-1.864,7.297-3.431,14.672-4.779,22.081c-1.602,8.808-3.142,17.712-3.45,26.673
        c-0.537,15.616,1.561,31.341,4.653,46.621c0.655,3.24,1.42,6.244,4.508,8.011c3.059,1.751,7.008,1.336,9.634-1.02
        c1.29-1.157,2.199-2.719,2.564-4.414c0.42-1.945-0.069-3.797-0.437-5.705c-0.804-4.172-1.537-8.358-2.186-12.557
        c-1.298-8.407-2.328-16.9-2.539-25.412c-0.096-3.889-0.029-7.804,0.467-11.668c0.598-4.651,1.602-9.257,2.69-13.816
        c2.219-9.299,4.94-18.479,7.834-27.588c1.298-4.086,2.639-8.158,4.023-12.215c0.723-2.118,1.359-4.093,0.838-6.352
        c-0.241-1.042-0.777-1.853-1.302-2.773c-0.427-0.746-0.853-1.493-1.28-2.239V237.12c-3.241-0.614-6.482-1.227-9.723-1.841
        c-0.586-0.111-1.183-0.281-1.778-0.317c-1.716-0.105-3.011,1.227-3.101,2.888c-0.084,1.556,0,3.14,0,4.699
        c0,1.215,0.164,2.562-0.014,3.765c-0.137,0.923-0.518,1.869-0.767,2.766c-1.119,4.032-2.237,8.065-3.356,12.097
        C40.502,264.184,39.668,267.189,38.835,270.195z"/>
    </g>
    <g id="handle-right">
      <path fill="#73401A" d="M94.452,270.195c1.864,7.297,3.431,14.672,4.779,22.081c1.602,8.808,3.142,17.712,3.45,26.673
        c0.537,15.616-1.561,31.341-4.653,46.621c-0.655,3.24-1.42,6.244-4.508,8.011c-3.059,1.751-7.008,1.336-9.634-1.02
        c-1.29-1.157-2.199-2.719-2.564-4.414c-0.42-1.945,0.069-3.797,0.437-5.705c0.804-4.172,1.537-8.358,2.186-12.557
        c1.298-8.407,2.328-16.9,2.539-25.412c0.096-3.889,0.029-7.804-0.467-11.668c-0.598-4.651-1.602-9.257-2.69-13.816
        c-2.219-9.299-4.94-18.479-7.834-27.588c-1.298-4.086-2.639-8.158-4.023-12.215c-0.723-2.118-1.359-4.093-0.838-6.352
        c0.241-1.042,0.777-1.853,1.302-2.773c0.427-0.746,0.853-1.493,1.28-2.239V237.12c3.241-0.614,6.482-1.227,9.723-1.841
        c0.586-0.111,1.183-0.281,1.778-0.317c1.716-0.105,3.011,1.227,3.101,2.888c0.084,1.556,0,3.14,0,4.699
        c0,1.215-0.164,2.562,0.014,3.765c0.137,0.923,0.518,1.869,0.767,2.766c1.119,4.032,2.237,8.065,3.356,12.097
        C92.785,264.184,93.619,267.189,94.452,270.195z"/>
    </g>
    <path id="jaw-right" fill="#CCCCCC" d="M66.791,209.958c-4.837,1.062-8.913,1.975-10.778,6.455l-4.853-4.741v-15.595l12.759-36.354
      h2.872v12.962v15.382V209.958z"/>
    <path id="jaw-left" fill="#B3B3B3" d="M66.791,209.958c4.837,1.062,8.913,1.975,10.778,6.455l4.853-4.741v-15.595l-12.759-36.354
      h-2.872v12.962v15.382V209.958z"/>
    <rect id="jaw-gap" x="63.644" y="188.917" fill="#FFFFFF" width="6" height="38"/>
    <g id="fulcrum">
      <path fill="#6E6E6E" d="M79.267,223.991c0.411-1.28,0.636-2.643,0.636-4.06c0-1.804-0.362-3.523-1.014-5.09
        c-1.642-3.944-5.133-6.923-9.39-7.857c-0.761-0.167-1.546-0.269-2.35-0.299c-0.168-0.006-0.335-0.013-0.504-0.013
        s-0.337,0.006-0.504,0.013c-0.804,0.03-1.589,0.132-2.35,0.299c-4.258,0.935-7.749,3.913-9.39,7.857
        c-0.652,1.568-1.014,3.287-1.014,5.09c0,1.416,0.224,2.78,0.636,4.06c1.557,4.846,5.826,8.473,11.02,9.099
        c0.526,0.063,1.06,0.1,1.604,0.1c0.543,0,1.078-0.036,1.604-0.1C73.441,232.463,77.71,228.836,79.267,223.991z"/>
    </g>
  </g>
</svg>
